<?xml version="1.0" standalone="no"?>
<!DOCTYPE svg PUBLIC "-//W3C//DTD SVG 20010904//EN"
 "http://www.w3.org/TR/2001/REC-SVG-20010904/DTD/svg10.dtd">
<svg version="1.0" xmlns="http://www.w3.org/2000/svg"
 width="260.000000pt" height="260.000000pt" viewBox="0 0 260.000000 260.000000"
 preserveAspectRatio="xMidYMid meet">
<metadata>
Created by potrace 1.11, written by Peter Selinger 2001-2013
</metadata>
<g transform="translate(0.000000,260.000000) scale(0.100000,-0.100000)"
fill="#000000" stroke="none">
<path d="M1180 2043 c-46 -9 -149 -61 -224 -113 -54 -37 -83 -66 -107 -106
-25 -41 -39 -54 -57 -54 -35 0 -98 -38 -111 -67 -6 -13 -11 -46 -11 -73 0 -28
-3 -50 -7 -50 -5 -1 -26 -25 -48 -55 -25 -33 -50 -56 -65 -59 -24 -5 -104 -15
-165 -22 -16 -1 -46 -5 -65 -8 -79 -12 -118 -9 -155 12 -39 23 -60 27 -69 13
-6 -9 102 -85 119 -84 5 1 37 4 70 7 33 4 87 9 120 11 33 3 73 8 88 11 27 6
28 4 18 -15 -7 -12 -16 -21 -21 -21 -6 0 -10 -5 -10 -11 0 -6 -14 -31 -31 -57
-27 -41 -21 -37 43 31 78 82 83 84 193 93 39 3 85 7 103 9 35 3 58 16 112 65
65 58 72 55 32 -19 -36 -67 -40 -71 -112 -105 -150 -70 -455 -217 -473 -227
-15 -8 -43 -8 -126 3 -17 2 -31 -3 -31 -11 0 -10 22 -19 66 -27 15 -3 34 -9
43 -13 27 -14 28 -13 241 87 41 20 77 36 80 37 3 1 37 16 75 35 39 18 108 50
155 71 82 36 87 40 138 116 29 43 56 83 60 90 4 7 25 14 47 15 38 3 42 1 96
-67 30 -38 63 -76 72 -84 15 -12 13 -18 -26 -64 -23 -28 -49 -58 -57 -67 -8
-9 -41 -45 -72 -80 -31 -36 -68 -78 -83 -95 -71 -80 -77 -94 -131 -295 -29
-110 -52 -205 -49 -212 2 -7 7 -26 10 -43 9 -46 10 -49 18 -62 18 -29 24 -9
20 67 -3 46 1 96 7 116 7 19 13 41 14 47 4 23 67 222 79 249 12 27 105 132
264 297 l82 86 21 -21 c11 -11 96 -157 189 -325 250 -453 220 -406 297 -461
62 -44 64 -46 103 -78 24 -20 41 -26 41 -14 0 7 -8 14 -92 87 -72 63 -98 104
-198 307 -129 261 -190 388 -190 394 0 4 8 2 19 -3 108 -58 312 -73 351 -26
28 34 15 95 -36 162 -25 33 -27 44 -2 20 62 -60 292 -237 308 -237 5 0 10 -4
10 -8 0 -4 16 -14 36 -21 141 -51 281 36 227 142 -7 15 -39 44 -69 64 -51 34
-54 38 -36 46 26 12 46 59 37 88 -10 32 -41 55 -105 80 -30 11 -82 31 -115 44
-33 12 -112 42 -175 65 -63 23 -129 48 -146 56 -17 7 -80 31 -140 53 -60 22
-140 52 -179 67 -38 15 -86 32 -105 39 -30 11 -36 19 -45 61 -13 55 -27 85
-50 104 -17 14 -76 21 -115 13z m-270 -434 c0 -16 -123 -119 -143 -119 -12 -1
-48 -3 -81 -7 l-59 -6 42 42 c32 32 49 42 69 40 40 -5 86 18 118 58 26 32 29
34 41 17 7 -10 13 -21 13 -25z"/>
</g>
</svg>
