<svg id="Layer_1" data-name="Layer 1" xmlns="http://www.w3.org/2000/svg" viewBox="0 0 83.46 54.53"><defs><style>.cls-1{fill:#2c2d2d;}</style></defs><title>quotesDown</title><path class="cls-1" d="M19.06,1A16.21,16.21,0,0,1,30.53,5.69a15.64,15.64,0,0,1,4.94,11.89q0,13.64-14.4,25.8T2.64,55.56Q0,55.56,0,53.19,0,51.94,9.6,44q10.71-8.9,10.71-15.16,0-3.62-6.54-6.82-7-3.48-7-10A10.45,10.45,0,0,1,10.15,4.3,12.18,12.18,0,0,1,19.06,1ZM67.18,1A16,16,0,0,1,78.59,5.69a15.75,15.75,0,0,1,4.87,11.89q0,13.5-14.4,25.73T50.77,55.56q-2.64,0-2.64-2.36,0-1.25,9.6-9.18,10.57-8.9,10.57-15.16,0-3.62-6.4-6.82Q54.8,18.56,54.8,12A10.35,10.35,0,0,1,58.21,4.3,12.43,12.43,0,0,1,67.18,1Z" transform="translate(0 -1.03)"/></svg>