<?xml version="1.0" encoding="utf-8"?>
<!-- Generator: Adobe Illustrator 20.1.0, SVG Export Plug-In . SVG Version: 6.00 Build 0)  -->
<svg version="1.1" id="Layer_1" xmlns="http://www.w3.org/2000/svg" xmlns:xlink="http://www.w3.org/1999/xlink" x="0px" y="0px"
	 viewBox="0 0 341.4 242.4" style="enable-background:new 0 0 341.4 242.4;" xml:space="preserve">
<style type="text/css">
	.st0{fill:none;stroke:#ED6418;stroke-miterlimit:10;}
</style>
<g>
	<g>
		<path class="st0" d="M270.7,218.8l2.7,6.6c2.5,2.6,10.2-1.5,10.2-1.5C277,224.7,270.7,218.8,270.7,218.8z"/>
		<path class="st0" d="M271.9,210.9c-0.7-0.6-1.4-1.3-2.1-2.1C269.8,208.8,270.5,209.7,271.9,210.9z"/>
		<path class="st0" d="M271.9,210.9c16.7,15,36.7-1.6,36.7-1.6C288.7,221.5,276.5,214.7,271.9,210.9z"/>
		<path class="st0" d="M256.2,176.4c0,0,0.5,4,1.7,6.2c0,0,0-7.4,5.6-13.3C263.4,169.3,256.3,171.4,256.2,176.4z"/>
		<path class="st0" d="M311.7,141l-2.1-0.6l-1,1.3l-1.6-1l-1.3,1.7l-1.7-1.1l-1.1,1.8l-2-0.5l-0.7,1.1l-1.9-0.4l-0.7,1.7l-1.5-0.3
			l-1.2,1.7l-1.6-0.6c0,0-0.9,1.3-1.2,1c-0.3-0.3-1.4-0.3-1.4-0.3l-1,0.7l-1.7-0.5l-0.6,2l-1.8-0.4l-0.9,1.6l-2-0.6l-0.2,1.3
			l-1.9-0.4l-1.9,1.8l-1.4-0.6l-0.3,1.3l-1.9-0.8l0,2.1l-2.7-1.1l-0.1,1.8l-2.4-0.5l-0.8,1.7l-1.2-1.2l-1,2.1l-1.4-0.8l-0.7,1.9
			l-1.4-1.4l-1.1,2.3l-1.9-1.1l-1.4,1.9l-1.5-1l-1,1.9l-1.7-0.9l-1.2,2l-2.4-1l-0.4,2.1l-1.4-1.4l-1,2l-2.2-0.8l-0.8,2.2l-2.5-1
			l-0.9,2.2l-2.5-0.3l27.2,75.3l1-1.8l2,0.4l0.7-1.5l1.7,0.5l1-2l1.8,0.9l0.4-1.8l1.9,1.1l0.4-1.1l2,0.7l0.7-1.4l1.6,0.5l0.4-1.6
			l1.7,0.4l0.7-1.3l0.6-0.1l0.9,0.7l0.8-1.4l1.7,0.9l0.9-1.6l1.2,0.4l0.8-1.4l1.5,0.8l0.7-2.2l1.9,0.8l0.7-1.1l1.8,0.9l0.8-1.7
			l1.8,0.3l1.9,0l2.2,1.4l0.4-0.4l-0.5-2.2l1.7,0.1l0.7-1.7l1.6,0.7l1.1-1.9l1.5,0.6l0.7-1.4l1.5,0.4l0.7-1.7l1.7,0.7l1-1.8l1,0.9
			l1.2-1.7l2.2,0.5l0.6-1.2l1.7,0.3l0.8-1l1.2,0.1l1.4-1.2l1.3,0.5l1.1-1.5l1.6,0.5l0.7-1.8l2,0.3l1.1-1.4l1.4,0.8l0.8-1.9l1.7,0.5
			l0.8-1.5l1.2,0.2l-27.3-73.4L311.7,141z M255.2,176.1c0.7-5.8,10.7-8,10.7-8c-10.3,6.5-6.9,22.8-6.9,22.8
			C253.5,177.6,255.2,176.1,255.2,176.1z M278.6,228.2c0,0-7,0.2-8.4-3.3l-5-13.2c0,0,10.8,14.6,26.4,11.5L278.6,228.2z
			 M306.4,212.7c-25.8,13.9-37.9-3.8-37.9-3.8c-14.4-22.6-3.8-36-3.8-36c17.7-20.3,38.5-8.2,38.5-8.2c0,0,0.1,0,0.1,0.1
			c-4.9-2.6-12.3-4.7-21.8-2.1c0,0-18.1,5.5-18.4,27.4c0,0,2.6,35.4,37.9,22.1c0,0,21.3-7.2,16.6-30.1c0,0-2-7-7.5-12.2
			c0,0-1.7-2-5-4c9.6,5.7,10.7,11.5,10.7,11.5C328.6,201.1,306.4,212.7,306.4,212.7z M287.8,207c0,0-9.2-0.6-14.6-12
			c0,0,7.1,10.5,17.9,10.4c0,0,10.8,1.2,17.8-9.8C308.9,195.7,304.1,209.3,287.8,207z M301,207.8c-11.2,5.8-16,2.9-16,2.9
			c-17.4-4.2-16.3-22.1-16.3-22.1c1.2-18.9,18.2-22.4,18.2-22.4c-15.6,5-16.9,20.4-16.9,20.4c0.5,12.7,7.2,17.1,7.2,17.1
			C287,212.6,301,207.8,301,207.8z M305.8,173.8c0,0,10.2,6.7,8,17.6c0,0-0.9,8.6-10,14.3C303.8,205.7,321.4,192.7,305.8,173.8z
			 M317.8,213.2c0,0-2.5-0.6-3.2-1.3c0-0.1-0.3-0.6-0.3-0.6c-0.4-0.9-0.3-1.2,0.8-2.6c0,0,7.8-8.2,6.5-18.9c0,0,3.4,11-5.1,21.1
			c0,0-0.2,2.9,2.6,1.8L317.8,213.2z M329.2,206.9c0,0,0.4,1.8-1.2,2.4l-1.2,0.5c0,0-0.1,0-0.1,0l0.1,0c0.4-0.2,2.4-2.1-0.5-10.7
			l-1.4-3.9c0.5,1.3,1,2.7,1.4,3.7L329.2,206.9z M316.1,170.6c0,0-9.8-10.4-22.9-11.9l10.6-4.4c0,0-8,3.8-3.8,4.7
			c0,0,8.9,2.6,14.6,8.9c0,0-2.9-8.1-5.7-12.5C308.8,155.4,312.9,159.3,316.1,170.6z"/>
	</g>
	<g>
		<path class="st0" d="M183.6,175.6l4.6,1.5c2.5-0.2,3.7-5.9,3.7-5.9C189.4,174.9,183.6,175.6,183.6,175.6z"/>
		<path class="st0" d="M180.1,171.5c-0.6,0.1-1.3,0.2-2,0.2C178.1,171.7,178.8,171.7,180.1,171.5z"/>
		<path class="st0" d="M180.1,171.5c15.1-2.1,15.2-19.7,15.2-19.7C192.9,167.5,184.1,170.8,180.1,171.5z"/>
		<path class="st0" d="M155.4,164.6c0,0,2.3,1.5,3.9,1.8c0,0-3.8-3.2-4.4-8.7C154.9,157.8,152.8,162.3,155.4,164.6z"/>
		<path class="st0" d="M161.3,120.4l-1.2,0.8l0.2,1.1l-1.2,0.4l0.3,1.4l-1.3,0.4l0.5,1.4l-1.1,0.8l0.3,0.8l-1,0.8l0.6,1.1l-0.8,0.6
			l0.3,1.3l-1,0.5c0,0,0.2,1,0,1.1c-0.3,0-0.8,0.6-0.8,0.6l-0.1,0.8l-1,0.7l0.8,1.2l-1,0.8l0.5,1.1l-1.2,0.7l0.6,0.6l-1.1,0.8
			l0.1,1.8l-0.9,0.5l0.5,0.7l-1.2,0.6l1,0.9l-1.7,0.9l0.9,0.8l-1.3,1l0.5,1.1l-1.2,0.1l0.6,1.5l-1,0.4l0.7,1.2l-1.3,0.1l0.7,1.6
			l-1.4,0.5l0.3,1.6l-1.2,0.4l0.6,1.3l-1.2,0.5l0.5,1.5l-1.6,0.8l0.9,1.1l-1.3,0.1l0.6,1.4l-1.4,0.8l0.8,1.4l-1.6,0.9l0.8,1.4
			l-1.2,1.2l50.8,18.8l-0.5-1.3l1.1-0.8l-0.5-1l1-0.7l-0.6-1.4l1.2-0.5l-0.8-1l1.4-0.5l-0.4-0.7l1.2-0.7l-0.4-0.9l1-0.6l-0.6-0.9
			l0.9-0.7l-0.4-0.9l0.2-0.3l0.8-0.2l-0.3-1l1.2-0.5l-0.4-1.2l0.8-0.5l-0.4-1l1.1-0.4l-0.8-1.3l1.2-0.6l-0.3-0.8l1.3-0.5l-0.5-1.2
			l0.9-0.8l0.1-0.9l1-0.4l0-0.4l-0.7-0.8l1.1-0.8l-0.4-1.1l1.1-0.5l-0.5-1.4l1-0.5l-0.4-1l0.9-0.6l-0.5-1.1l1.1-0.6l-0.5-1.3
			l0.9-0.1l-0.4-1.4l1.2-0.9l-0.3-0.8l0.9-0.8l-0.2-0.8l0.6-0.6l0-1.2l0.8-0.4l-0.3-1.2l1-0.6l-0.6-1.1l1-0.9l-0.3-1.2l1-0.4
			l-0.7-1.2l1-0.7l-0.4-1l0.6-0.5l-49.9-17.9L161.3,120.4z M154.8,164.9c-2.7-2.9,0.5-9.1,0.5-9.1c-1.1,8.2,8.8,13.5,8.8,13.5
			C154.8,166.5,154.8,164.9,154.8,164.9z M191.9,175.6c0,0-3,3.7-5.4,2.9l-9-3.2c0,0,12.2,0.8,17.5-8.7L191.9,175.6z M196,154.4
			c-4.1,19.4-18.5,17.9-18.5,17.9c-18-2.4-20.3-13.8-20.3-13.8c-2.8-18,12.6-23.5,12.6-23.5c0,0,0.1,0,0.1,0
			c-3.5,1.4-7.8,4.3-10.6,10.4c0,0-5,11.8,6.1,21.5c0,0,19.5,14.1,28-10c0,0,5.6-14.1-8.3-21.7c0,0-4.5-2-9.6-1.5c0,0-1.8,0-4.3,0.8
			c7.2-2.5,10.6-0.5,10.6-0.5C199.8,137.9,196,154.4,196,154.4z M185,161.6c0,0-4.3,4.5-12.6,2.3c0,0,8.5,0.9,13.2-4.7
			c0,0,5.4-5,2.7-13.5C188.4,145.7,193.3,154.2,185,161.6z M191.2,155.1c-1.9,8.3-5.5,9.5-5.5,9.5c-9.7,7.1-18.5-1.2-18.5-1.2
			c-9.3-8.9-3.6-19.2-3.6-19.2c-4.2,10.3,3.2,17.7,3.2,17.7c6.8,5.3,12,3.7,12,3.7C187.5,164.5,191.2,155.1,191.2,155.1z
			 M175.7,137.8c0,0,7.9-2.3,12.6,3.6c0,0,4,4.2,3,11.4C191.3,152.8,192.3,138,175.7,137.8z M201.3,148.8c0,0-1.4,1.1-2.1,1.1
			c0,0-0.4-0.1-0.5-0.1c-0.7-0.2-0.8-0.4-1-1.6c0,0-0.8-7.6-6.9-11.6c0,0,7.2,3.1,8.7,11.9c0,0,1.4,1.3,2.1-0.6L201.3,148.8z
			 M203,140.1c0,0,1.1,0.6,0.7,1.7l-0.3,0.8c0,0,0,0,0,0l0,0c0.1-0.3-0.1-2.2-5.7-4.4l-2.6-1c0.9,0.3,1.8,0.6,2.5,0.9L203,140.1z
			 M178.5,131.1c0,0-9.6,0.5-16.2,6.7l2.4-7.4c0,0-1.5,5.8,0.8,4c0,0,5.2-3.5,11-3.7c0,0-5.4-2-8.9-2.5
			C167.5,128.2,171.3,127.8,178.5,131.1z"/>
	</g>
	<g>
		<path class="st0" d="M141.7,71.8l5.1,2.7c2.9,0.3,5.5-6.2,5.5-6.2C148.7,72.2,141.7,71.8,141.7,71.8z"/>
		<path class="st0" d="M138.4,66.3c-0.8,0-1.6-0.1-2.4-0.2C136,66.1,136.9,66.3,138.4,66.3z"/>
		<path class="st0" d="M138.4,66.3c18,0.7,21.8-19.9,21.8-19.9C154.3,64.2,143.3,66.3,138.4,66.3z"/>
		<path class="st0" d="M111,53.2c0,0,2.4,2.2,4.2,3c0,0-3.8-4.6-3.4-11.1C111.8,45.1,108.5,50,111,53.2z"/>
		<path class="st0" d="M127,2.7l-1.6,0.7l0.1,1.4L124,5.1l0.1,1.7L122.5,7l0.3,1.7l-1.5,0.7l0.1,1l-1.3,0.7l0.5,1.4l-1.1,0.5
			l0.1,1.6l-1.3,0.4c0,0,0.1,1.2-0.3,1.2c-0.3,0-1,0.6-1,0.6l-0.2,0.9l-1.4,0.6l0.7,1.5l-1.3,0.7l0.3,1.4l-1.5,0.6l0.6,0.9l-1.4,0.7
			l-0.2,2.1l-1.1,0.4l0.4,1l-1.5,0.5l1,1.3l-2.2,0.7l0.8,1.1l-1.7,0.9l0.4,1.4l-1.4-0.1l0.5,1.8l-1.2,0.2l0.6,1.5l-1.6-0.1l0.5,2
			l-1.7,0.3l0.1,1.9l-1.4,0.2l0.4,1.7l-1.5,0.3l0.3,1.8l-2,0.6l0.8,1.5l-1.6-0.1l0.4,1.8l-1.8,0.7l0.7,1.8l-2,0.7l0.6,1.8l-1.7,1.1
			L151,87.6l-0.3-1.7l1.4-0.7l-0.4-1.3l1.3-0.6l-0.4-1.7l1.6-0.4l-0.7-1.4l1.7-0.3l-0.3-0.9l1.5-0.6l-0.3-1.2l1.3-0.5l-0.5-1.2
			l1.2-0.6l-0.2-1.2l0.3-0.3l0.9,0l-0.2-1.3l1.6-0.3l-0.3-1.5l1-0.4l-0.2-1.3l1.3-0.2l-0.7-1.7l1.6-0.4l-0.1-1l1.6-0.4l-0.4-1.5
			l1.2-0.7l0.3-1l1.2-0.3l0-0.4l-0.6-1l1.5-0.8l-0.3-1.4l1.4-0.4l-0.3-1.8l1.3-0.4l-0.3-1.3l1.1-0.5l-0.4-1.4l1.4-0.4l-0.3-1.7
			l1.1,0l-0.2-1.7l1.6-0.9l-0.2-1l1.2-0.7l0-1l0.8-0.5l0.2-1.5l1.1-0.3l-0.1-1.5l1.2-0.5l-0.5-1.5l1.4-0.8l-0.1-1.4l1.3-0.2
			l-0.5-1.6l1.3-0.6l-0.3-1.3l0.8-0.5L127.1,0.8L127,2.7z M110.2,53.4c-2.6-3.9,2.5-10.5,2.5-10.5c-3,9.3,7.5,17.6,7.5,17.6
			C109.9,55.2,110.2,53.4,110.2,53.4z M151.4,73.5c0,0-4.2,3.8-6.9,2.3l-9.9-5.5c0,0,14.2,3.4,22.2-6.5L151.4,73.5z M160.6,49.7
			c-8.7,21.9-25.3,17.2-25.3,17.2c-20.5-6.5-20.9-20.3-20.9-20.3C114.9,25,134,21.7,134,21.7c0,0,0.1,0,0.1,0
			c-4.4,0.9-10,3.5-14.5,10c0,0-8.3,12.7,2.7,26.4c0,0,19.8,20.5,34.8-5.9c0,0,9.4-15.4-5.2-27.1c0,0-4.9-3.3-10.9-3.7
			c0,0-2.1-0.3-5.2,0.1c8.9-1.4,12.5,1.6,12.5,1.6C168.4,31.1,160.6,49.7,160.6,49.7z M146.2,55.7c0,0-6,4.4-15.2,0.1
			c0,0,9.8,2.8,16.4-2.8c0,0,7.3-4.8,5.9-15.2C153.4,37.9,157.4,48.8,146.2,55.7z M154.8,49.5c-4,9.4-8.4,10-8.4,10
			c-12.9,6.3-21.4-5.2-21.4-5.2c-9-12.3-0.3-23.2-0.3-23.2c-7.1,11.1,0.1,21.3,0.1,21.3c6.9,7.6,13.3,6.9,13.3,6.9
			C148.6,59.6,154.8,49.5,154.8,49.5z M140.2,26c0,0,9.7-1.1,14,6.8c0,0,3.8,5.8,1.2,14C155.4,46.8,159.6,29.6,140.2,26z
			 M167.9,44.1c0,0-1.9,0.9-2.6,0.8c-0.1,0-0.5-0.2-0.5-0.2c-0.7-0.4-0.8-0.6-0.8-2c0,0,0.6-9.1-5.7-15c0,0,7.8,5.1,7.7,15.7
			c0,0,1.4,1.9,2.5-0.2L167.9,44.1z M171.8,34.4c0,0,1.2,0.9,0.5,2.1l-0.5,0.9c0,0,0,0,0,0l0,0c0.2-0.3,0.4-2.5-5.8-6.3l-2.9-1.7
			c1,0.5,2,1.1,2.8,1.6L171.8,34.4z M144.9,18.7c0,0-11.4-1.4-20.3,4.4l4.3-8.2c0,0-3,6.5,0.1,4.9c0,0,6.8-3,13.6-2
			c0,0-6-3.5-9.9-4.8C132.6,13.1,137.2,13.4,144.9,18.7z"/>
	</g>
	<g>
		<path class="st0" d="M19.3,53.8l1.7,3.4c1.4,1.3,5.3-1.2,5.3-1.2C22.8,56.6,19.3,53.8,19.3,53.8z"/>
		<path class="st0" d="M19.6,49.6c-0.4-0.3-0.8-0.6-1.2-1C18.4,48.6,18.8,49,19.6,49.6z"/>
		<path class="st0" d="M19.6,49.6c9.4,7.2,19.3-2.4,19.3-2.4C28.9,54.5,22.2,51.4,19.6,49.6z"/>
		<path class="st0" d="M9.9,32c0,0,0.4,2.1,1.1,3.2c0,0-0.3-3.9,2.4-7.2C13.4,28,9.8,29.4,9.9,32z"/>
		<path class="st0" d="M37.7,11.1l-1.1-0.2l-0.5,0.8l-0.9-0.4l-0.6,1l-0.9-0.5l-0.5,1l-1.1-0.2l-0.3,0.6l-1-0.1l-0.3,0.9l-0.8-0.1
			l-0.5,0.9l-0.9-0.3c0,0-0.4,0.7-0.6,0.6c-0.2-0.1-0.8-0.1-0.8-0.1l-0.5,0.4l-0.9-0.2l-0.2,1.1l-1-0.1L23.9,17l-1.1-0.2l0,0.7
			l-1-0.1l-0.9,1l-0.7-0.2L20,18.7l-1-0.3l0.1,1.1l-1.5-0.5l0,0.9l-1.3-0.2L16,20.7l-0.7-0.6l-0.5,1.2L14.1,21l-0.3,1L13,21.3
			l-0.5,1.3l-1-0.5l-0.7,1.1l-0.8-0.4l-0.4,1l-0.9-0.4L8,24.5L6.7,24l-0.1,1.1l-0.8-0.7l-0.4,1.1l-1.2-0.3l-0.3,1.2L2.5,26l-0.4,1.2
			l-1.3,0l17.4,38.5l0.5-1l1.1,0.2l0.3-0.8l0.9,0.2l0.4-1.1l1,0.4l0.1-1l1,0.5l0.2-0.6l1.1,0.3l0.3-0.7l0.9,0.2l0.2-0.8l0.9,0.2
			l0.3-0.7l0.3-0.1l0.5,0.3l0.4-0.8l1,0.4l0.4-0.9l0.7,0.2l0.4-0.8l0.8,0.4l0.3-1.2l1,0.4l0.3-0.6l1,0.4l0.3-0.9l0.9,0.1l0.6-0.4
			l0.8,0.3l0.2-0.2l0.1-0.8l1.1,0.2l0.4-0.9l0.9,0.3l0.5-1l0.8,0.3l0.3-0.8l0.8,0.1l0.3-0.9l0.9,0.3l0.5-1l0.6,0.4l0.5-1l1.2,0.2
			l0.3-0.7l0.9,0.1l0.4-0.5l0.6,0L49,51l0.7,0.2l0.5-0.8l0.9,0.2l0.3-1l1,0.1l0.5-0.8l0.8,0.4l0.3-1l0.9,0.2l0.3-0.8l0.6,0.1
			L38.4,10.1L37.7,11.1z M9.4,31.9c0.1-3.1,5.3-4.7,5.3-4.7C9.5,31.1,12,39.5,12,39.5C8.5,32.8,9.4,31.9,9.4,31.9z M23.8,58.4
			c0,0-3.7,0.4-4.6-1.4l-3.2-6.7c0,0,6.3,7.2,14.4,4.9L23.8,58.4z M37.8,49.1c-13,8.4-20.1-0.4-20.1-0.4
			c-8.5-11.3-3.5-18.8-3.5-18.8c8.5-11.4,20-5.9,20-5.9c0,0,0,0,0.1,0c-2.7-1.2-6.7-2-11.6-0.2c0,0-9.3,3.7-8.6,15.2
			c0,0,2.9,18.5,20.9,10.1c0,0,10.9-4.7,7.5-16.5c0,0-1.4-3.6-4.4-6.1c0,0-1-1-2.8-1.9c5.3,2.6,6.1,5.6,6.1,5.6
			C49.1,42.1,37.8,49.1,37.8,49.1z M27.8,46.8c0,0-4.9,0.1-8.2-5.7c0,0,4.2,5.2,9.9,4.8c0,0,5.7,0.2,9-5.9
			C38.5,40,36.5,47.4,27.8,46.8z M34.8,46.7c-5.7,3.5-8.3,2.2-8.3,2.2C17.1,47.4,17,38,17,38c-0.2-10,8.7-12.5,8.7-12.5
			c-8,3.3-8.1,11.5-8.1,11.5c0.8,6.7,4.5,8.7,4.5,8.7C27.6,49.8,34.8,46.7,34.8,46.7z M35.9,28.6c0,0,5.6,3.1,5,9
			c0,0-0.1,4.6-4.7,7.9C36.2,45.5,44.9,37.9,35.9,28.6z M43.9,48.9c0,0-1.4-0.2-1.7-0.6c0,0-0.2-0.3-0.2-0.3
			c-0.3-0.5-0.2-0.6,0.3-1.4c0,0,3.8-4.6,2.6-10.2c0,0,2.2,5.7-1.8,11.3c0,0,0,1.5,1.4,0.8L43.9,48.9z M49.6,45.1
			c0,0,0.3,0.9-0.5,1.3l-0.6,0.3c0,0,0,0,0,0l0,0c0.2-0.1,1.2-1.2-0.7-5.6l-0.9-2c0.3,0.7,0.7,1.4,0.9,1.9L49.6,45.1z M41.2,26.5
			c0,0-5.6-5.1-12.6-5.3l5.4-2.7c0,0-4.1,2.3-1.8,2.6c0,0,4.8,1,8.1,4.1c0,0-1.9-4.1-3.5-6.3C36.7,18.8,39.1,20.7,41.2,26.5z"/>
	</g>
</g>
</svg>
