<?xml version="1.0" encoding="utf-8"?>
<!-- Generator: Adobe Illustrator 20.1.0, SVG Export Plug-In . SVG Version: 6.00 Build 0)  -->
<svg version="1.1" id="Layer_1" xmlns="http://www.w3.org/2000/svg" xmlns:xlink="http://www.w3.org/1999/xlink" x="0px" y="0px"
	 viewBox="0 0 381.9 242.6" style="enable-background:new 0 0 381.9 242.6;" xml:space="preserve">
<style type="text/css">
	.st0{fill:none;stroke:#ED6418;stroke-miterlimit:10;}
</style>
<g>
	<g>
		<path class="st0" d="M347.9,124.7c-12.8,20.9-30.1,28.3-30.1,28.3c-51.1,17.2-69.3-31.5-69.3-31.5c-12.3-34.8,7.9-68.5,9.2-70.6
			c-17.5,27.7-17.1,52-17.1,52c0.5,16.2-13.1,16.4-13.1,16.4c17.4,51.6,69.5,55.3,69.5,55.3c41.9,3.9,65.7-44.3,65.7-44.3
			C355.7,133,347.9,124.7,347.9,124.7z"/>
		<path class="st0" d="M257.6,50.8c0,0,0-0.1,0.1-0.1C257.7,50.7,257.7,50.8,257.6,50.8z"/>
		<path class="st0" d="M361.3,22.7C327.6-8.2,283,3.9,283,3.9c-15.7,7.9-37-2-37-2c-12.8-5.5-20.6,5.9-20.6,5.9
			c-17.2,14-30.3,56.1-30.3,56.1c-7.2,18.2,2.2,23.5,2.2,23.5c8.8,6.1,17.1,13.7,17.1,13.7c6.5,13.5,9.1,13.4,9.1,13.4
			c14.3,4.5,14.1-11.3,14.1-11.3c2.5-34.1,21.8-58.1,21.8-58.1c21.5-25.5,45.1-25.5,45.1-25.5c31.1-2.5,52.3,25,52.3,25
			c14.6,29.1,3.3,52,3.3,52c-13.6,6-13.6,14.5-13.6,14.5c0.5,20.7,18.5,15.9,18.5,15.9c14.2-4.9,10.2-20.1,10.2-20.1
			c2.3-6.9,6-30.5,6-30.5C380.2,36.1,361.3,22.7,361.3,22.7z M203.1,78.3c-1.3,0.5-2.9-0.1-3.4-1.4c-0.6-1.3,0.1-2.9,1.4-3.4
			c1.3-0.6,2.9,0.1,3.4,1.4C205,76.2,204.4,77.7,203.1,78.3z M224.3,96.8c-1.4,0.6-2.9-0.1-3.5-1.4c-0.6-1.4,0.1-2.9,1.4-3.5
			c1.4-0.6,2.9,0.1,3.5,1.4C226.3,94.7,225.6,96.2,224.3,96.8z M227.1,73.7l-6.1-2.6c0,0-10.8,1.9-8.5-7.5c0,0,3.4-5.6,8.8-1.5
			c0,0,2.5,2.3,1.3,4.8l6.6,2.8C229.2,69.7,231,73.3,227.1,73.7z M233.4,9.4c1.5-0.6,3.3,0.1,3.9,1.6c0.6,1.5-0.1,3.3-1.6,3.9
			c-1.5,0.6-3.3-0.1-3.9-1.6C231.1,11.8,231.8,10.1,233.4,9.4z M243.5,30.8c0,0-1.3,2.8-4.6,0.7c0,0-1.5-1-0.9-2.2l6.6-13.1
			c0,0,4-2.2,5.4,1.9L243.5,30.8z M263.2,21.8c-1.6,0.7-3.4-0.1-4.1-1.7c-0.7-1.6,0.1-3.4,1.7-4.1c1.6-0.7,3.4,0.1,4.1,1.7
			C265.6,19.4,264.8,21.2,263.2,21.8z M363.6,119.4c-3.2,1.3-6.9-0.2-8.2-3.4c-1.3-3.2,0.2-6.9,3.4-8.2c3.2-1.3,6.9,0.2,8.2,3.4
			C368.3,114.4,366.8,118,363.6,119.4z"/>
	</g>
	<path class="st0" d="M158.8,32.9l-7.1,2.9c0,0-3.5-7,1.5-9L186.8,13c0,0,4.3-2.2,4.8,2.4l6.3,15.2c0,0,2,3.9-2.3,5.2
		c0,0-2.5,0.6-3.6-2.4c0,0-0.4-1.1,0.4-2.6l-5.1-12.5l-29,11.9C158.3,30.3,158.2,31.7,158.8,32.9z"/>
	<path class="st0" d="M188.2,24.5l2,4.9c0,0-2.1,5.2,3.5,7.8c0,0,5.3,1.9,7.2-3c0,0,3.7-7.2-2.7-8.3l-2.1-4.9c0,0,7.9-1.8,10.2,6.9
		l1.9-0.6c0,0-8.2,15.7-8.3,16.7l-0.9-1.4c0,0-9.4,2-12.8-5.7C186.1,37,180.4,28,188.2,24.5z"/>
	<rect x="125.4" y="40.4" transform="matrix(0.925 -0.38 0.38 0.925 -5.4703 59.5082)" class="st0" width="45.3" height="6.5"/>
	<path class="st0" d="M156.5,46.4l6.1-2.5c0,0,0.6,1.1,1.5,0.8l19.5-8l2.5,6l-22.5,9.3C163.5,51.9,156.9,51.8,156.5,46.4z"/>
	<path class="st0" d="M135.2,55.2l5.7-2.3c0,0,0.1,5.9-6.3,10.2c0,0-14.8-5.2-16.4-5.3l0.6-0.9l0.4-0.9c0,0-3.5-9.7,2.8-14
		c0,0,9.8-6.3,14.4,0.2l-7.6,3.1c0,0-2.9-2.3-5.4,2.6c0,0-1.8,7.5,3.6,9.3C127,57.1,134.8,59.5,135.2,55.2z"/>
	<g>
		<path class="st0" d="M53.4,211.6c-21.6-11.5-30.1-28.3-30.1-28.3C3,133.4,50.5,112.2,50.5,112.2c33.9-14.4,68.9,3.6,71,4.8
			c-28.7-15.8-53-13.9-53-13.9C52.4,104.5,51.4,91,51.4,91C1,111.6,0.5,163.7,0.5,163.7c-1.3,42.1,48.3,62.9,48.3,62.9
			C45.6,219.9,53.4,211.6,53.4,211.6z"/>
		<path class="st0" d="M121.5,116.9c0,0,0.1,0,0.1,0.1C121.6,117,121.6,117,121.5,116.9z"/>
		<path class="st0" d="M156,218.7c28.8-35.5,13.9-79.3,13.9-79.3c-8.8-15.2-0.3-37.1-0.3-37.1c4.7-13.1-7.2-20.2-7.2-20.2
			c-15-16.3-57.9-26.8-57.9-26.8c-18.6-6-23.3,3.7-23.3,3.7c-5.6,9.2-12.7,18-12.7,18c-13.1,7.3-12.8,9.9-12.8,9.9
			c-3.6,14.6,12.1,13.4,12.1,13.4c34.2,0.4,59.3,18.2,59.3,18.2c26.8,19.9,28.2,43.5,28.2,43.5c4.4,30.9-21.7,53.8-21.7,53.8
			c-28.1,16.4-51.7,6.5-51.7,6.5c-6.9-13.2-15.4-12.6-15.4-12.6C45.9,211.3,51.9,229,51.9,229c5.8,13.9,20.7,8.9,20.7,8.9
			c7.1,1.9,30.8,4.1,30.8,4.1C143.7,238.4,156,218.7,156,218.7z M90.8,64.2c-0.6-1.3-0.1-2.9,1.2-3.5c1.3-0.6,2.9-0.1,3.5,1.2
			c0.6,1.3,0.1,2.9-1.2,3.5C93,66,91.4,65.5,90.8,64.2z M73.6,86.5c-0.6-1.3-0.1-2.9,1.2-3.5c1.3-0.6,2.9-0.1,3.5,1.2
			c0.6,1.3,0.1,2.9-1.2,3.5C75.8,88.3,74.2,87.8,73.6,86.5z M96.8,87.9l2.2-6.3c0,0-2.5-10.7,7-8.9c0,0,5.8,3,2.1,8.7
			c0,0-2.2,2.7-4.8,1.5l-2.3,6.8C100.9,89.7,97.5,91.8,96.8,87.9z M161.3,90.2c0.7,1.5,0.1,3.3-1.4,4c-1.5,0.7-3.3,0.1-4-1.4
			c-0.7-1.5-0.1-3.3,1.4-4C158.8,88,160.6,88.7,161.3,90.2z M140.7,101.6c0,0-2.9-1.1-1-4.6c0,0,0.9-1.5,2.1-1l13.5,5.8
			c0,0,2.4,3.9-1.5,5.5L140.7,101.6z M150.8,120.7c-0.7-1.5-0.1-3.4,1.4-4.1c1.5-0.7,3.4-0.1,4.2,1.4c0.7,1.5,0.1,3.4-1.4,4.2
			C153.4,122.9,151.6,122.3,150.8,120.7z M59.7,226.9c-1.5-3.1-0.2-6.9,2.9-8.4c3.1-1.5,6.9-0.2,8.4,2.9c1.5,3.1,0.2,6.9-2.9,8.4
			C64.9,231.3,61.2,230,59.7,226.9z"/>
	</g>
</g>
</svg>
