<svg xmlns="http://www.w3.org/2000/svg" viewBox="0 0 83.54 83.54"><defs><style>.cls-1{fill:#5d5d5d;}</style></defs><title>instagram</title><g id="Layer_2" data-name="Layer 2"><g id="Layer_1-2" data-name="Layer 1"><path class="cls-1" d="M41.77,83.54A41.77,41.77,0,1,1,83.54,41.77,41.82,41.82,0,0,1,41.77,83.54m0-81.5A39.73,39.73,0,1,0,81.51,41.77,39.78,39.78,0,0,0,41.77,2"/><path class="cls-1" d="M53,23.45H30.53a7.1,7.1,0,0,0-7.09,7.08V53a7.09,7.09,0,0,0,7.09,7.08H53A7.09,7.09,0,0,0,60.11,53V30.53A7.1,7.1,0,0,0,53,23.45m2,4.23h.81v6.21l-6.19,0,0-6.21ZM36.54,38a6.44,6.44,0,1,1-1.22,3.76A6.45,6.45,0,0,1,36.54,38m20,15A3.52,3.52,0,0,1,53,56.53H30.53A3.51,3.51,0,0,1,27,53V38h5.47a10,10,0,1,0,18.58,0h5.47Z"/></g></g></svg>