<svg xmlns="http://www.w3.org/2000/svg" viewBox="0 0 83.54 83.54"><defs><style>.cls-1{fill:#5d5d5d;}</style></defs><title>twitter</title><g id="Layer_2" data-name="Layer 2"><g id="Layer_1-2" data-name="Layer 1"><path class="cls-1" d="M41.77,83.54A41.77,41.77,0,1,1,83.54,41.77,41.82,41.82,0,0,1,41.77,83.54M41.77,2A39.73,39.73,0,1,0,81.51,41.77,39.78,39.78,0,0,0,41.77,2"/><path class="cls-1" d="M60.11,32.38a15.21,15.21,0,0,1-4.32,1.18A7.54,7.54,0,0,0,59.1,29.4a15,15,0,0,1-4.78,1.82,7.53,7.53,0,0,0-13,5.15,7.42,7.42,0,0,0,.19,1.71A21.37,21.37,0,0,1,26,30.23a7.54,7.54,0,0,0,2.33,10,7.56,7.56,0,0,1-3.41-.94v.09a7.53,7.53,0,0,0,6,7.38,7.29,7.29,0,0,1-2,.27,7.45,7.45,0,0,1-1.41-.14,7.53,7.53,0,0,0,7,5.22,15.1,15.1,0,0,1-9.35,3.22,14.71,14.71,0,0,1-1.79-.11A21.32,21.32,0,0,0,35,58.66c13.85,0,21.41-11.46,21.41-21.41,0-.33,0-.66,0-1a15.3,15.3,0,0,0,3.76-3.9"/></g></g></svg>