<svg id="Layer_1" data-name="Layer 1" xmlns="http://www.w3.org/2000/svg" viewBox="0 0 84.87 55.45"><defs><style>.cls-1{fill:#2c2d2d;}</style></defs><title>quotesUp</title><path class="cls-1" d="M16.55,55.45A16.11,16.11,0,0,1,5,50.64a16.07,16.07,0,0,1-5-12Q0,24.75,14.64,12.38T33.24,0q2.83,0,2.83,2.41,0,1.27-9.9,9.33Q15.42,20.79,15.42,27.16q0,3.68,6.51,6.93,7.22,3.54,7.21,10.18a10.52,10.52,0,0,1-3.47,7.85A12.63,12.63,0,0,1,16.55,55.45Zm48.94,0A16.54,16.54,0,0,1,48.94,38.62q0-13.86,14.64-26.24T82.18,0q2.69,0,2.69,2.41,0,1.27-9.76,9.33Q64.36,20.79,64.36,27.16q0,3.68,6.51,6.93,7.07,3.54,7.07,10.18a10.62,10.62,0,0,1-3.4,7.85A12.38,12.38,0,0,1,65.49,55.45Z"/></svg>