<svg id="Layer_1" data-name="Layer 1" xmlns="http://www.w3.org/2000/svg" viewBox="0 0 83.54 83.54"><defs><style>.cls-1{fill:#5d5d5d;}</style></defs><title>Artboard 1</title><path class="cls-1" d="M41.77,83.54A41.77,41.77,0,1,1,83.54,41.77,41.82,41.82,0,0,1,41.77,83.54m0-81.5A39.73,39.73,0,1,0,81.51,41.77,39.78,39.78,0,0,0,41.77,2"/><path class="cls-1" d="M32.92,35.56h3.79V31.88c0-1.63,0-4.13,1.22-5.68a6.74,6.74,0,0,1,5.89-2.76,23.86,23.86,0,0,1,6.8.68l-.95,5.62a12.77,12.77,0,0,0-3.05-.46c-1.47,0-2.8.53-2.8,2v4.28h6L49.45,41H43.82V60.11H36.72V41H32.92Z"/></svg>