<?xml version="1.0" encoding="utf-8"?>
<!-- Generator: Adobe Illustrator 20.0.0, SVG Export Plug-In . SVG Version: 6.00 Build 0)  -->
<svg version="1.1" id="Layer_1" xmlns="http://www.w3.org/2000/svg" xmlns:xlink="http://www.w3.org/1999/xlink" x="0px" y="0px"
	 viewBox="0 0 311 355" style="enable-background:new 0 0 311 355;" xml:space="preserve">
<style type="text/css">
	.st0{fill:none;stroke:#ED6418;stroke-miterlimit:10;}
</style>
<g>
	<g>
		<path class="st0" d="M287,98.8c0.4,24.5-10.2,40-10.2,40c-33.9,41.9-75.4,10.6-75.4,10.6c-29-22.8-30-62.1-30.1-64.5
			c0.1,32.8,13.4,53.1,13.4,53.1c9.1,13.4-2.3,20.9-2.3,20.9c42.3,34.2,88.3,9.4,88.3,9.4c37.5-19.2,31.7-72.6,31.7-72.6
			C298,101.7,287,98.8,287,98.8z"/>
		<path class="st0" d="M171.1,84.8c0,0-0.1-0.1,0-0.1C171.2,84.7,171.2,84.8,171.1,84.8z"/>
		<path class="st0" d="M243.6,5.5c-45-8-76.2,26.1-76.2,26.1c-9,15.1-32.3,18.1-32.3,18.1c-13.8,2.2-14.2,16-14.2,16
			c-7,21,4.5,63.6,4.5,63.6c3.7,19.2,14.5,18.7,14.5,18.7c10.7,0.4,21.8,2.4,21.8,2.4c12.7,7.9,14.9,6.4,14.9,6.4
			c14.5-3.9,5.8-17.1,5.8-17.1c-16.2-30.1-12.7-60.7-12.7-60.7C174.1,46,194,33.4,194,33.4c24.9-18.8,57.6-6.9,57.6-6.9
			c27.9,16.7,30.7,42.1,30.7,42.1c-8.3,12.4-3.7,19.5-3.7,19.5c11.5,17.2,24.1,3.5,24.1,3.5c9.4-11.7-2.2-22.4-2.2-22.4
			c-1.8-7.1-11.3-29-11.3-29C266.7,6.7,243.6,5.5,243.6,5.5z M139.9,137.3c-0.8,1.1-2.5,1.5-3.6,0.6c-1.2-0.8-1.5-2.5-0.6-3.6
			c0.8-1.2,2.5-1.5,3.6-0.6S140.6,136.1,139.9,137.3z M167.7,141.5c-0.9,1.3-2.5,1.5-3.7,0.7c-1.3-0.9-1.5-2.5-0.7-3.7
			c0.9-1.3,2.5-1.5,3.7-0.7C168.2,138.7,168.4,140.3,167.7,141.5z M157.7,120.5l-6.5,1.1c0,0-8.1,7.4-11.2-1.8c0,0-0.1-6.6,6.6-6
			c0,0,3.3,0.6,3.7,3.4l7.1-1.2C157.3,116,160.7,118.1,157.7,120.5z M128.5,62.9c0.9-1.3,2.8-1.7,4.2-0.7c1.3,0.9,1.7,2.8,0.7,4.2
			c-0.9,1.3-2.8,1.7-4.2,0.7C127.8,66.1,127.5,64.3,128.5,62.9z M148.5,75.5c0,0,0.4,3.1-3.5,3.1c0,0-1.8,0-1.9-1.4l-1.5-14.6
			c0,0,2.2-4,5.6-1.3L148.5,75.5z M160.3,57.4c-1,1.4-2.9,1.7-4.4,0.8c-1.4-1-1.7-2.9-0.8-4.4c1-1.4,2.9-1.7,4.4-0.8
			C161,54,161.3,56,160.3,57.4z M297.4,85.9c-2,2.8-5.9,3.5-8.7,1.5c-2.8-2-3.5-5.9-1.5-8.7c2-2.8,5.9-3.5,8.7-1.5
			C298.7,79.2,299.3,83,297.4,85.9z"/>
	</g>
	<path class="st0" d="M78.1,122.7l-4.4,6.3c0,0-6.7-4-3.6-8.4l21-29.7c0,0,2.5-4.2,5.3-0.5l13.5,9.5c0,0,3.8,2.2,0.8,5.6
		c0,0-1.8,1.8-4.3-0.1c0,0-0.9-0.7-1.1-2.4l-11-7.8l-18.1,25.6C76.3,120.8,77,122,78.1,122.7z"/>
	<path class="st0" d="M98.4,99.8l4.3,3.1c0,0,1,5.5,7.1,4.7c0,0,5.5-1.2,4.5-6.4c0,0-0.7-8.1-6.7-5.6l-4.4-3c0,0,5.7-5.8,12.3,0.4
		l1.3-1.5c0,0,1.5,17.6,1.9,18.5l-1.5-0.7c0,0-6.9,6.7-13.9,2C103.4,111.5,93.7,107,98.4,99.8z"/>
	
		<rect x="52.2" y="134.3" transform="matrix(0.5772 -0.8166 0.8166 0.5772 -80.6565 119.2245)" class="st0" width="45.3" height="6.5"/>
	<path class="st0" d="M83.4,135.3l3.8-5.4c0,0,1.1,0.6,1.7-0.1l12.2-17.2l5.3,3.7l-14,19.9C92.3,136.2,86.6,139.7,83.4,135.3z"/>
	<path class="st0" d="M70.2,154.2l3.6-5c0,0,3.2,4.9,0.1,12c0,0-15.3,3.5-16.7,4.3l0-1.1l-0.1-1c0,0-8.2-6.3-5.1-13.3
		c0,0,4.9-10.6,12.3-7.5l-4.8,6.7c0,0-3.7-0.4-3.2,5.1c0,0,2.5,7.3,8,5.9C64.2,160.2,72.1,158,70.2,154.2z"/>
	<g>
		<path class="st0" d="M84.9,330c-24.4,1.9-40.6-7.8-40.6-7.8C0.5,291,29.2,247.7,29.2,247.7c20.9-30.3,60.1-33.9,62.5-34
			c-32.7,2-52.2,16.7-52.2,16.7c-12.8,9.8-20.9-1-20.9-1c-31.5,44.4-4,88.7-4,88.7c21.5,36.2,74.5,27.2,74.5,27.2
			C82.8,341.2,84.9,330,84.9,330z"/>
		<path class="st0" d="M91.7,213.6c0,0,0.1-0.1,0.1,0C91.8,213.6,91.8,213.6,91.7,213.6z"/>
		<path class="st0" d="M175.4,281c5.3-45.4-30.8-74.4-30.8-74.4c-15.6-8.1-20.1-31.2-20.1-31.2c-3.1-13.6-16.9-13.2-16.9-13.2
			c-21.4-5.7-63.2,8.4-63.2,8.4c-18.9,4.9-17.7,15.6-17.7,15.6c0.2,10.8-1.1,22-1.1,22c-7.1,13.2-5.5,15.2-5.5,15.2
			c4.8,14.3,17.4,4.8,17.4,4.8c29.1-18,59.8-16.4,59.8-16.4c33.3,2.4,47.1,21.6,47.1,21.6c20.3,23.7,10.5,57,10.5,57
			c-14.9,28.9-40.2,33.2-40.2,33.2c-12.9-7.4-19.8-2.4-19.8-2.4c-16.5,12.4-2,24.1-2,24.1c12.3,8.6,22.2-3.6,22.2-3.6
			c7-2.2,28.2-13,28.2-13C175.5,304.3,175.4,281,175.4,281z M37.5,185.6c-1.2-0.8-1.6-2.4-0.9-3.6c0.8-1.2,2.4-1.6,3.6-0.9
			c1.2,0.8,1.6,2.4,0.9,3.6C40.3,185.9,38.7,186.3,37.5,185.6z M34.9,213.6c-1.2-0.8-1.6-2.4-0.9-3.6c0.8-1.2,2.4-1.6,3.6-0.9
			c1.2,0.8,1.6,2.4,0.9,3.6C37.7,214,36.1,214.4,34.9,213.6z M55.3,202.4l-1.5-6.5c0,0-7.8-7.7,1.1-11.3c0,0,6.5-0.6,6.4,6.2
			c0,0-0.4,3.5-3.2,3.8l1.7,7C59.7,201.7,57.9,205.3,55.3,202.4z M110.9,169.7c1.4,0.9,1.9,2.7,1,4.1c-0.9,1.4-2.7,1.9-4.1,1
			c-1.4-0.9-1.9-2.7-1-4.1C107.7,169.2,109.6,168.8,110.9,169.7z M99.7,190.4c0,0-3,0.6-3.3-3.3c0,0,0-1.7,1.2-2l14.5-2.3
			c0,0,4.1,2,1.7,5.4L99.7,190.4z M118.4,201.1c-1.4-0.9-1.9-2.8-1-4.2s2.8-1.9,4.3-1.1c1.4,0.9,1.9,2.8,1.1,4.3
			C121.8,201.6,120,202,118.4,201.1z M98.4,339.6c-2.9-1.8-3.9-5.7-2.1-8.6c1.8-2.9,5.7-3.9,8.6-2.1c2.9,1.8,3.9,5.7,2.1,8.6
			C105.2,340.5,101.4,341.4,98.4,339.6z"/>
	</g>
</g>
</svg>
